# xmcd CD database file
#
# Track frame offsets:
#	150
#	16994
#	42865
#	62350
#	78313
#	101091
#	119424
#	138403
#	155524
#	171651
#	188803
#	211683
#	235537
#
# Disc length: 3392 seconds
#
# Revision: 0
# Processed by: cddbd v1.5.2PL0 Copyright (c) Steve Scherf et al.
# Submitted via: CDex 1.70beta2
#
DISCID=a50d3e0d
DTITLE=Birgit Lindberg trio and Anders Färdal - My dear ones...
DYEAR=2004
DGENRE=Jazz
TTITLE0=My dear ones
TTITLE1=Alone together
TTITLE2=Anjo
TTITLE3=You'd be so nice to come home to
TTITLE4=I fall in love too easily
TTITLE5=Simplicity
TTITLE6=Always and forever
TTITLE7=Gone with the wind
TTITLE8=Song for Kobe
TTITLE9=I remember you
TTITLE10=First song
TTITLE11=Amanda
TTITLE12=My dear ones 2
EXTD=YEAR: 2004
EXTT0=
EXTT1=
EXTT2=
EXTT3=
EXTT4=
EXTT5=
EXTT6=
EXTT7=
EXTT8=
EXTT9=
EXTT10=
EXTT11=
EXTT12=
PLAYORDER=
